#!OML:ASF I:\Actors\actors\Patient Classification 1\Patient 1\Session 1\Subject1.ASF
:FULLY-SPECIFIED
:DEGREES
196
root -0.030097 17.4212 10.1862 10.078 -1.93882 -9.54641
lowerback -1.85977 -0.203768 9.70016
upperback -8.0916 0.221904 4.46629
thorax -7.52882 -0.362271 -0.692759
lowerneck -14.3867 -1.8906 -1.39136
upperneck 27.3475 -2.497 0.387354
head 11.2688 -1.24286 0.0315286
rclavicle -2.68359e-014 8.11041e-014
rhumerus -51.662 -1.92107 -86.5547
rradius 77.9965
rwrist 22.4197
rhand 4.84658 -37.1668
rfingers 7.12502
rthumb 30.2236 -64.7133
lclavicle -2.68359e-014 8.11041e-014
lhumerus -42.6042 -4.10575 99.5409
lradius 105.553
lwrist 30.9609
lhand -28.9082 -1.46999
lfingers 7.12502
lthumb -2.26305 28.4978
rfemur -5.70638 19.0685 29.3956
rtibia 10.9228
rfoot -15.5154 -19.6452
rtoes 4.45011
lfemur 5.65266 -35.5472 -9.1055
ltibia -2.66828
lfoot -22.7647 46.3801
ltoes 5.52007
197
root 0.00314835 17.4197 10.1793 9.95524 -1.95693 -9.42997
lowerback -1.93447 -0.139567 9.55174
upperback -8.06595 0.286659 4.37579
thorax -7.44674 -0.320641 -0.712407
lowerneck -14.0426 -2.21758 -1.2968
upperneck 27.251 -2.93064 0.156906
head 11.1619 -1.46119 -0.12366
rclavicle 4.2043e-014 -7.71285e-014
rhumerus -51.1764 -1.37807 -87.2532
rradius 81.2713
rwrist 24.5142
rhand 3.96604 -37.4416
rfingers 7.12502
rthumb 29.3833 -65.1388
lclavicle 4.2043e-014 -7.71285e-014
lhumerus -42.5291 -4.44539 99.6476
lradius 105.298
lwrist 30.3425
lhand -28.4648 -1.45695
lfingers 7.12502
lthumb -1.83484 28.5149
rfemur -5.55156 19.2605 29.1887
rtibia 10.8525
rfoot -15.5244 -19.8966
rtoes 4.2773
lfemur 5.944 -35.9177 -9.58228
ltibia -2.75585
lfoot -23.1803 46.5783
ltoes 6.22588
198
root 0.037934 17.4184 10.1698 9.82495 -2.03259 -9.41902
lowerback -1.9679 -0.0874583 9.49879
upperback -8.02663 0.344279 4.32773
thorax -7.37711 -0.28732 -0.738561
lowerneck -13.623 -2.70078 -1.97643
upperneck 26.8991 -3.6758 0.944868
head 10.9846 -1.77724 0.184117
rclavicle -6.85807e-015 5.96354e-015
rhumerus -49.8275 -0.0216963 -87.9355
rradius 83.6506
rwrist 26.9393
rhand 4.41353 -36.9401
rfingers 7.12502
rthumb 29.8104 -64.5615
lclavicle -6.85807e-015 5.96354e-015
lhumerus -42.4117 -4.64847 99.7437
lradius 105.023
lwrist 29.6279
lhand -28.1467 -1.38472
lfingers 7.12502
lthumb -1.52756 28.5896
rfemur -5.39141 19.4428 29.0979
rtibia 10.8039
rfoot -15.5501 -20.0616
rtoes 3.96842
lfemur 6.26142 -36.1381 -9.92646
ltibia -2.89476
lfoot -23.1502 46.8065
ltoes 6.24345
199
root 0.0736627 17.4163 10.1596 9.75402 -2.15215 -9.42037
lowerback -2.05127 -0.0622018 9.43899
upperback -8.00876 0.362744 4.3161
thorax -7.30577 -0.272084 -0.720227
lowerneck -13.2825 -2.96765 -2.0621
upperneck 26.9132 -4.02938 0.884708
head 10.9292 -1.95801 0.134513
rclavicle 8.94531e-016 -1.19271e-014
rhumerus -48.491 1.34157 -88.5908
rradius 85.9189
rwrist 27.2681
rhand 2.2506 -35.0352
rfingers 7.12502
rthumb 27.7442 -63.008
lclavicle 8.94531e-016 -1.19271e-014
lhumerus -42.3043 -4.68538 99.8372
lradius 104.72
lwrist 28.9921
lhand -28.134 -1.37659
lfingers 7.12502
lthumb -1.5153 28.5978
rfemur -5.29956 19.6009 28.9853
rtibia 10.7323
rfoot -15.5694 -20.158
rtoes 3.69115
lfemur 6.43782 -36.2047 -10.1746
ltibia -2.97593
lfoot -22.9659 46.9703
ltoes 6.05865
200
root 0.11052 17.4139 10.1491 9.73297 -2.32737 -9.36712
lowerback -2.1701 0.0144399 9.36698
upperback -8.02686 0.44517 4.24875
thorax -7.24727 -0.227928 -0.756004
lowerneck -13.1584 -3.20366 -1.65945
upperneck 27.3735 -4.25818 0.0892365
head 11.051 -2.11861 -0.253615
rclavicle 4.57205e-015 -8.74653e-015
rhumerus -47.0555 2.53291 -89.1055
rradius 88.18
rwrist 26.6311
rhand 1.21404 -33.8514
rfingers 7.12502
rthumb 26.7527 -61.9798
lclavicle 4.57205e-015 -8.74653e-015
lhumerus -42.3019 -4.84143 99.9644
lradius 104.45
lwrist 28.5069
lhand -28.2796 -1.40957
lfingers 7.12502
lthumb -1.656 28.5638
rfemur -5.26691 19.7293 28.7673
rtibia 10.6434
rfoot -15.5428 -20.1619
rtoes 3.59705
lfemur 6.59086 -36.3798 -10.5212
ltibia -3.02866
lfoot -23.2329 47.2059
ltoes 6.54411
201
root 0.150235 17.4165 10.1394 9.55052 -2.43313 -9.30166
lowerback -2.13206 0.0771563 9.36634
upperback -8.00603 0.526451 4.14321
thorax -7.23802 -0.190995 -0.871043
lowerneck -13.0295 -3.47484 -1.44917
upperneck 27.6979 -4.5877 -0.343496
head 11.1332 -2.30046 -0.491579
rclavicle -8.24956e-015 -2.8625e-014
rhumerus -45.4191 3.69215 -89.4535
rradius 90.3112
rwrist 25.6504
rhand 1.7967 -33.2894
rfingers 7.12502
rthumb 27.3101 -61.3313
lclavicle -8.24956e-015 -2.8625e-014
lhumerus -42.2653 -5.09635 100.136
lradius 104.174
lwrist 28.01
lhand -28.4963 -1.23083
lfingers 7.12502
lthumb -1.86523 28.7408
rfemur -5.01826 19.7763 28.5864
rtibia 10.4839
rfoot -15.4763 -20.1505
rtoes 3.4013
lfemur 6.9877 -36.7 -11.0464
ltibia -3.11787
lfoot -23.5333 47.4851
ltoes 7.1622
202
root 0.185707 17.4168 10.1304 9.45428 -2.64272 -9.30237
lowerback -2.17376 0.139073 9.3252
upperback -7.99653 0.599182 4.10143
thorax -7.19562 -0.152524 -0.896137
lowerneck -12.6032 -3.58392 -1.23908
upperneck 27.4761 -4.72065 -0.621142
head 10.9506 -2.37769 -0.631439
rclavicle 4.57205e-015 -1.03368e-014
rhumerus -43.6267 4.99939 -89.7015
rradius 92.0044
rwrist 24.9891
rhand 2.47127 -31.9943
rfingers 7.12502
rthumb 27.9552 -59.9329
lclavicle 4.57205e-015 -1.03368e-014
lhumerus -42.1562 -5.2468 100.305
lradius 103.833
lwrist 27.2765
lhand -28.6263 -1.11762
lfingers 7.12502
lthumb -1.99079 28.8528
rfemur -4.89244 19.9496 28.4613
rtibia 10.3788
rfoot -15.4133 -20.1253
rtoes 3.27839
lfemur 7.36628 -37.0552 -11.4763
ltibia -3.24114
lfoot -23.9409 47.8642
ltoes 7.91721
203
root 0.206578 17.4001 10.1159 10.1227 -3.46115 -9.44608
lowerback -2.82192 0.472734 9.10722
upperback -8.18488 0.971109 4.12385
thorax -6.99311 0.0480597 -0.76249
lowerneck -12.3747 -3.6822 -1.22539
upperneck 27.5137 -4.86699 -0.633465
head 10.919 -2.4463 -0.652489
rclavicle -1.6201e-014 2.74323e-014
rhumerus -41.7888 6.32751 -89.8534
rradius 93.2303
rwrist 25.3369
rhand 2.51845 -29.9415
rfingers 7.12502
rthumb 28.0003 -57.8728
lclavicle -1.6201e-014 2.74323e-014
lhumerus -42.0982 -5.47593 100.479
lradius 103.514
lwrist 26.2779
lhand -28.6463 -1.17082
lfingers 7.12502
lthumb -2.01007 28.7995
rfemur -5.90803 20.4502 28.1714
rtibia 10.746
rfoot -15.3676 -19.7148
rtoes 3.22852
lfemur 7.03904 -37.2774 -11.3044
ltibia -3.44961
lfoot -25.1474 48.6238
ltoes 9.5511
204
root 0.240784 17.4037 10.1101 9.98444 -3.39882 -9.27626
lowerback -2.91414 0.45452 8.97063
upperback -8.18888 0.927268 4.00504
thorax -6.94363 0.0321892 -0.81147
lowerneck -12.3055 -3.83937 -1.38449
upperneck 27.7467 -5.09203 -0.52711
head 11.0024 -2.5523 -0.619277
rclavicle 2.67365e-014 1.03368e-014
rhumerus -39.9244 7.72847 -89.9493
rradius 94.3418
rwrist 24.8474
rhand 2.71193 -29.5187
rfingers 7.12502
rthumb 28.1852 -57.4197
lclavicle 2.67365e-014 1.03368e-014
lhumerus -42.0904 -5.75804 100.669
lradius 103.272
lwrist 25.09
lhand -28.6997 -1.27996
lfingers 7.12502
lthumb -2.06173 28.6898
rfemur -5.70891 20.5042 27.9025
rtibia 10.611
rfoot -15.4174 -19.8967
rtoes 3.29549
lfemur 7.19066 -37.504 -11.7558
ltibia -3.41497
lfoot -25.1032 48.7183
ltoes 9.60662
205
root 0.274532 17.4099 10.1042 9.77501 -3.32309 -9.08004
lowerback -2.93093 0.39339 8.80389
upperback -8.18881 0.835557 3.89204
thorax -6.93703 -0.00666471 -0.836545
lowerneck -12.2264 -4.01744 -1.59614
upperneck 28.021 -5.35048 -0.376198
head 11.1041 -2.67363 -0.56618
rclavicle -1.47101e-014 4.73108e-014
rhumerus -38.1352 9.34795 -90.0972
rradius 95.2303
rwrist 23.6792
rhand 2.757 -29.8826
rfingers 7.12502
rthumb 28.2283 -57.7765
lclavicle -1.47101e-014 4.73108e-014
lhumerus -42.1358 -5.95265 100.872
lradius 103.073
lwrist 23.9599
lhand -28.8456 -1.67742
lfingers 7.12502
lthumb -2.2026 28.291
rfemur -5.41174 20.5156 27.6472
rtibia 10.4371
rfoot -15.3796 -20.1033
rtoes 2.91863
lfemur 7.42386 -37.6427 -12.2686
ltibia -3.40846
lfoot -24.7849 48.769
ltoes 9.36877
206
root 0.299702 17.4087 10.0912 9.93768 -3.85724 -9.06693
lowerback -3.07518 0.55971 8.60955
upperback -8.301 1.0418 3.82385
thorax -6.957 0.101739 -0.80529
lowerneck -12.0536 -4.13929 -2.09866
upperneck 28.176 -5.58443 0.211013
head 11.1683 -2.76215 -0.298789
rclavicle -2.04251e-014 7.11649e-014
rhumerus -36.2608 10.5436 -89.9011
rradius 95.932
rwrist 23.4649
rhand 5.09477 -31.3635
rfingers 7.12502
rthumb 30.4604 -58.8664
lclavicle -2.04251e-014 7.11649e-014
lhumerus -42.2694 -6.15611 101.067
lradius 102.959
lwrist 23.15
lhand -29.0831 -2.25133
lfingers 7.12502
lthumb -2.43196 27.7145
rfemur -5.79441 20.6471 27.3844
rtibia 10.6341
rfoot -15.2324 -19.7718
rtoes 2.20704
lfemur 7.53441 -37.6617 -12.5135
ltibia -3.58351
lfoot -25.1711 49.1967
ltoes 9.85469
